<svg width="58" height="70" viewBox="0 0 58 70" fill="none" xmlns="http://www.w3.org/2000/svg">
<path d="M27.8367 0.667397L27.8368 0.667368C28.3633 0.444175 28.9548 0.44423 29.4817 0.667417L55.4872 11.6863C56.2887 12.026 56.8184 12.8287 56.8184 13.727V27.122C56.8184 45.369 46.0117 61.7749 29.4698 68.6654C28.9499 68.8819 28.3683 68.8818 27.8486 68.6654C11.3064 61.7748 0.5 45.3689 0.5 27.122V13.727C0.5 12.8287 1.0297 12.026 1.83116 11.6863C1.83117 11.6863 1.83118 11.6863 1.8312 11.6863L27.8367 0.667397ZM28.4541 64.1341L28.6592 64.2263L28.8642 64.1341C43.3794 57.6078 52.5111 42.9914 52.5111 27.122V15.535V15.2038L52.2062 15.0746L28.8542 5.17993L28.6592 5.09728L28.4641 5.17993L5.11218 15.0746L4.80726 15.2038V15.535V27.122C4.80726 43.4224 14.3274 57.7824 28.4541 64.1341ZM25.369 36.6002L25.7261 36.9647L26.0833 36.6002L37.4891 24.9603C38.3293 24.1029 39.6873 24.1028 40.5276 24.9603C41.3734 25.8236 41.3733 27.2271 40.5275 28.0903L40.5274 28.0903L27.2454 41.6451C26.405 42.5027 25.047 42.5024 24.2069 41.6451L16.7908 34.0767C15.9449 33.2134 15.9449 31.8099 16.7908 30.9468C17.6311 30.0893 18.9891 30.0892 19.8293 30.9467L19.8293 30.9468L25.369 36.6002Z" fill="#5D5FEF" stroke="#B0B3BA"/>
</svg>
