<svg width="229" height="230" viewBox="0 0 229 230" fill="none" xmlns="http://www.w3.org/2000/svg">
<path d="M76.4513 39.1127L76.4523 39.1121C108.405 22.9481 149.002 31.2211 173.109 57.5081L173.11 57.5096C185.197 70.5858 193.205 88.1954 196.183 106.125C199.161 124.057 197.1 142.262 189.109 156.544L189.108 156.546C173.177 185.31 133.376 198.6 97.3801 192.703C61.3911 186.808 29.5767 161.508 25.2551 128.797C23.1282 112.367 27.9316 93.9618 37.2846 77.6392C46.6364 61.3187 60.5087 47.1295 76.4513 39.1127Z" fill="white" stroke="#B0B3BA"/>
<path d="M114 80.1601L114 80.16C114.526 79.9369 115.118 79.9369 115.645 80.1601L141.65 91.179C142.452 91.5186 142.981 92.3214 142.981 93.2197V106.615C142.981 124.862 132.175 141.268 115.633 148.158C115.113 148.375 114.531 148.375 114.012 148.158C97.4695 141.267 86.6631 124.862 86.6631 106.615V93.2197C86.6631 92.3214 87.1928 91.5187 87.9942 91.179C87.9943 91.179 87.9943 91.179 87.9943 91.179L114 80.1601ZM114.617 143.627L114.822 143.719L115.027 143.627C129.542 137.1 138.674 122.484 138.674 106.615V95.0276V94.6965L138.369 94.5673L115.017 84.6726L114.822 84.59L114.627 84.6726L91.2753 94.5673L90.9703 94.6965V95.0276V106.615C90.9703 122.915 100.49 137.275 114.617 143.627ZM111.532 116.093L111.889 116.457L112.246 116.093L123.652 104.453C124.492 103.596 125.85 103.595 126.691 104.453C127.537 105.316 127.536 106.72 126.691 107.583L126.691 107.583L113.408 121.138C112.568 121.995 111.21 121.995 110.37 121.138L102.954 113.569C102.108 112.706 102.108 111.303 102.954 110.439C103.794 109.582 105.152 109.582 105.992 110.439L105.992 110.439L111.532 116.093Z" fill="#5D5FEF" stroke="#B0B3BA"/>
</svg>
