<svg width="20" height="19" viewBox="0 0 20 19" fill="none" xmlns="http://www.w3.org/2000/svg">
<path d="M7.255 11.005C8.221 11.005 9.005 11.788 9.005 12.755V16.253C9.005 16.7171 8.82063 17.1622 8.49244 17.4904C8.16425 17.8186 7.71913 18.003 7.255 18.003H1.75C1.28587 18.003 0.840752 17.8186 0.512563 17.4904C0.184375 17.1622 0 16.7171 0 16.253V12.755C0 11.788 0.784 11.005 1.75 11.005H7.255ZM18.25 11.005C19.216 11.005 20 11.788 20 12.755V16.253C20 16.7171 19.8156 17.1622 19.4874 17.4904C19.1592 17.8186 18.7141 18.003 18.25 18.003H12.745C12.2809 18.003 11.8358 17.8186 11.5076 17.4904C11.1794 17.1622 10.995 16.7171 10.995 16.253V12.755C10.995 11.788 11.779 11.005 12.745 11.005H18.25ZM7.255 12.505H1.75C1.6837 12.505 1.62011 12.5313 1.57322 12.5782C1.52634 12.6251 1.5 12.6887 1.5 12.755V16.253C1.5 16.392 1.612 16.503 1.75 16.503H7.255C7.3213 16.503 7.38489 16.4767 7.43178 16.4298C7.47866 16.3829 7.505 16.3193 7.505 16.253V12.755C7.505 12.6887 7.47866 12.6251 7.43178 12.5782C7.38489 12.5313 7.3213 12.505 7.255 12.505ZM18.25 12.505H12.745C12.6787 12.505 12.6151 12.5313 12.5682 12.5782C12.5213 12.6251 12.495 12.6887 12.495 12.755V16.253C12.495 16.392 12.607 16.503 12.745 16.503H18.25C18.3163 16.503 18.3799 16.4767 18.4268 16.4298C18.4737 16.3829 18.5 16.3193 18.5 16.253V12.755C18.5 12.6887 18.4737 12.6251 18.4268 12.5782C18.3799 12.5313 18.3163 12.505 18.25 12.505ZM18.25 0C19.216 0 20 0.784 20 1.75V7.25C20 7.71413 19.8156 8.15925 19.4874 8.48744C19.1592 8.81563 18.7141 9 18.25 9H1.75C1.28587 9 0.840752 8.81563 0.512563 8.48744C0.184375 8.15925 0 7.71413 0 7.25V1.75C1.64046e-05 1.31081 0.165171 0.887682 0.46268 0.564609C0.760189 0.241536 1.1683 0.0421391 1.606 0.00600004L1.75 0H18.25ZM18.25 1.5H1.75L1.693 1.507C1.63816 1.51984 1.58926 1.55083 1.55423 1.59493C1.5192 1.63903 1.50009 1.69368 1.5 1.75V7.25C1.5 7.388 1.612 7.5 1.75 7.5H18.25C18.3163 7.5 18.3799 7.47366 18.4268 7.42678C18.4737 7.37989 18.5 7.3163 18.5 7.25V1.75C18.5 1.6837 18.4737 1.62011 18.4268 1.57322C18.3799 1.52634 18.3163 1.5 18.25 1.5Z" fill="#022D45"/>
</svg>
