<svg width="48" height="48" viewBox="0 0 48 48" fill="none" xmlns="http://www.w3.org/2000/svg">
<path d="M17.25 18C17.25 14.2778 14.2222 11.25 10.5 11.25C6.77775 11.25 3.75 14.2778 3.75 18C3.75 21.7222 6.77775 24.75 10.5 24.75C14.2222 24.75 17.25 21.7222 17.25 18ZM13.2397 20.25C13.3485 19.7828 13.4318 19.284 13.4715 18.75H15.69C15.6135 19.2795 15.459 19.7835 15.2362 20.25H13.2397ZM9.309 20.25C9.1815 19.7925 9.08625 19.29 9.0375 18.75H11.9633C11.9145 19.29 11.8193 19.7925 11.6917 20.25H9.309ZM11.1135 21.75C10.9035 22.173 10.6883 22.524 10.5 22.7963C10.3117 22.524 10.0957 22.173 9.88575 21.75H11.1135ZM11.6917 15.75C11.8193 16.2075 11.9145 16.71 11.9633 17.25H9.0375C9.08625 16.71 9.1815 16.2075 9.309 15.75H11.6917ZM9.8865 14.25C10.0965 13.827 10.3117 13.476 10.5 13.2045C10.6883 13.4768 10.9035 13.8277 11.1135 14.25H9.8865ZM13.4715 17.25C13.4318 16.716 13.3485 16.2172 13.2397 15.75H15.2362C15.459 16.2165 15.6135 16.7205 15.69 17.25H13.4715ZM12.7657 14.25C12.5767 13.7857 12.369 13.3785 12.165 13.0253C12.924 13.2803 13.6065 13.7018 14.1675 14.25H12.7657ZM8.23425 14.25H6.83325C7.3935 13.7018 8.076 13.2803 8.83575 13.0253C8.631 13.3785 8.424 13.7857 8.23425 14.25ZM7.76025 15.75C7.6515 16.2172 7.56825 16.716 7.5285 17.25H5.31C5.3865 16.7205 5.541 16.2165 5.76375 15.75H7.76025ZM7.5285 18.75C7.56825 19.284 7.6515 19.7828 7.76025 20.25H5.76375C5.541 19.7835 5.3865 19.2795 5.31 18.75H7.5285ZM8.23425 21.75C8.42325 22.2142 8.631 22.6215 8.835 22.9747C8.076 22.7197 7.3935 22.2983 6.8325 21.75H8.23425ZM12.7657 21.75H14.1667C13.6065 22.2983 12.924 22.7197 12.1642 22.9747C12.369 22.6215 12.576 22.2142 12.7657 21.75Z" fill="#022D45"/>
<path d="M45 11.25H38.25V3C38.25 1.7595 37.2405 0.75 36 0.75H21C19.7595 0.75 18.75 1.7595 18.75 3V8.388C18.5145 8.304 18.264 8.25 18 8.25H3C1.7595 8.25 0.75 9.2595 0.75 10.5V25.5C0.75 26.7405 1.7595 27.75 3 27.75H3.75V43.5C3.75 45.5677 5.43225 47.25 7.5 47.25H25.5C27.5677 47.25 29.25 45.5677 29.25 43.5V30.75H30.75V31.3342C30.75 32.667 31.833 33.75 33.1657 33.75C33.7125 33.75 34.2472 33.5625 34.6755 33.2212L37.7633 30.75H45C46.2405 30.75 47.25 29.7405 47.25 28.5V13.5C47.25 12.2595 46.2405 11.25 45 11.25ZM33 20.25H36C36.4733 20.25 36.9113 20.1015 37.2743 19.851L39.573 21L33 24.2865V20.25ZM20.25 3C20.25 2.586 20.586 2.25 21 2.25H36C36.414 2.25 36.75 2.586 36.75 3V18C36.75 18.414 36.414 18.75 36 18.75H28.2367L24.738 21.549C24.5768 21.6788 24.3728 21.75 24.1658 21.75C23.661 21.75 23.25 21.339 23.25 20.8342V18.75H21C20.586 18.75 20.25 18.414 20.25 18V10.5V3ZM24.75 28.5V36.75H8.25V27.75H10.2367L13.3253 30.2212C13.7528 30.5625 14.2882 30.75 14.8342 30.75C16.167 30.75 17.25 29.667 17.25 28.3342V27.75H18C19.2405 27.75 20.25 26.7405 20.25 25.5V20.112C20.4855 20.196 20.736 20.25 21 20.25H21.75V20.8342C21.75 22.167 22.833 23.25 24.1658 23.25C24.3645 23.25 24.5595 23.217 24.75 23.169V26.967V28.5ZM2.25 25.5V10.5C2.25 10.086 2.586 9.75 3 9.75H18C18.414 9.75 18.75 10.086 18.75 10.5V18V25.5C18.75 25.914 18.414 26.25 18 26.25H15.75V28.3342C15.75 28.839 15.339 29.25 14.8342 29.25C14.6272 29.25 14.4233 29.1787 14.262 29.049L10.7633 26.25H3C2.586 26.25 2.25 25.914 2.25 25.5ZM27.75 43.5C27.75 44.7405 26.7405 45.75 25.5 45.75H7.5C6.2595 45.75 5.25 44.7405 5.25 43.5V27.75H6.75V36.75C6.75 37.5773 7.42275 38.25 8.25 38.25H24.75C25.5772 38.25 26.25 37.5773 26.25 36.75V30.612C26.4855 30.696 26.736 30.75 27 30.75H27.75V43.5ZM45.75 28.5C45.75 28.914 45.414 29.25 45 29.25H37.2367L33.738 32.049C33.5768 32.1787 33.3727 32.25 33.1657 32.25C32.661 32.25 32.25 31.839 32.25 31.3342V29.25H27C26.586 29.25 26.25 28.914 26.25 28.5V26.967V22.2607L28.7633 20.25H31.5V25.5C31.5 25.7603 31.635 26.001 31.8562 26.1383C31.9762 26.2125 32.1127 26.25 32.25 26.25C32.3647 26.25 32.4795 26.2238 32.5852 26.1712L41.5853 21.6712C41.8395 21.5438 42 21.2843 42 21C42 20.7157 41.8395 20.4562 41.5853 20.3288L38.154 18.6135C38.2103 18.4178 38.25 18.2145 38.25 18V12.75H45C45.414 12.75 45.75 13.086 45.75 13.5V28.5Z" fill="#022D45"/>
<path d="M19.5 39.75H13.5C12.2595 39.75 11.25 40.7595 11.25 42C11.25 43.2405 12.2595 44.25 13.5 44.25H19.5C20.7405 44.25 21.75 43.2405 21.75 42C21.75 40.7595 20.7405 39.75 19.5 39.75ZM19.5 42.75H13.5C13.086 42.75 12.75 42.414 12.75 42C12.75 41.586 13.086 41.25 13.5 41.25H19.5C19.914 41.25 20.25 41.586 20.25 42C20.25 42.414 19.914 42.75 19.5 42.75Z" fill="#022D45"/>
<path d="M27.75 15.75V17.25H29.25V15.75C30.9045 15.75 32.25 14.4045 32.25 12.75C32.25 11.0955 30.9045 9.75 29.25 9.75H27.75C26.9227 9.75 26.25 9.07725 26.25 8.25C26.25 7.42275 26.9227 6.75 27.75 6.75H29.25C30.0773 6.75 30.75 7.42275 30.75 8.25H32.25C32.25 6.5955 30.9045 5.25 29.25 5.25V3.75H27.75V5.25C26.0955 5.25 24.75 6.5955 24.75 8.25C24.75 9.9045 26.0955 11.25 27.75 11.25H29.25C30.0773 11.25 30.75 11.9227 30.75 12.75C30.75 13.5773 30.0773 14.25 29.25 14.25H27.75C26.9227 14.25 26.25 13.5773 26.25 12.75V12H24.75V12.75C24.75 14.4045 26.0955 15.75 27.75 15.75Z" fill="#022D45"/>
<path d="M18.75 32.25H20.25V33.75H18.75V32.25Z" fill="#022D45"/>
<path d="M21.75 32.25H23.25V33.75H21.75V32.25Z" fill="#022D45"/>
<path d="M9.75 32.25H11.25V33.75H9.75V32.25Z" fill="#022D45"/>
<path d="M15.75 32.25H17.25V33.75H15.75V32.25Z" fill="#022D45"/>
<path d="M12.75 32.25H14.25V33.75H12.75V32.25Z" fill="#022D45"/>
</svg>
