<svg width="20" height="20" viewBox="0 0 20 20" fill="none" xmlns="http://www.w3.org/2000/svg">
<path d="M1.00003 11H2.00003V18C2.00003 19.103 2.89703 20 4.00003 20H16C17.103 20 18 19.103 18 18V11H19C19.1978 11 19.3911 10.9413 19.5555 10.8314C19.7199 10.7215 19.848 10.5654 19.9237 10.3827C19.9994 10.2 20.0192 9.99894 19.9806 9.80499C19.942 9.61103 19.8468 9.43287 19.707 9.29302L10.707 0.293018C10.6142 0.200072 10.504 0.126334 10.3827 0.0760237C10.2614 0.025713 10.1314 -0.000183105 10 -0.000183105C9.8687 -0.000183105 9.73865 0.025713 9.61734 0.0760237C9.49602 0.126334 9.38582 0.200072 9.29303 0.293018L0.293031 9.29302C0.153222 9.43287 0.0580152 9.61103 0.0194476 9.80499C-0.0191199 9.99894 0.000683092 10.2 0.0763531 10.3827C0.152023 10.5654 0.280163 10.7215 0.444573 10.8314C0.608982 10.9413 0.802281 11 1.00003 11ZM8.00003 18V13H12V18H8.00003ZM10 2.41402L16 8.41402V13L16.001 18H14V13C14 11.897 13.103 11 12 11H8.00003C6.89703 11 6.00003 11.897 6.00003 13V18H4.00003V8.41402L10 2.41402Z" fill="#022D45"/>
</svg>
