<svg width="48" height="48" viewBox="0 0 48 48" fill="none" xmlns="http://www.w3.org/2000/svg">
<g clip-path="url(#clip0_913:1977)">
<path d="M44.8001 46.4001V11.2006H38.4002V46.4001H36.0002V19.2005H29.6003V46.4001H27.2003V25.6004H20.8004V46.4001H19.2005V32.0003H12.8005V46.4001H10.4006V36.8002H4.00067V46.4001H1.60071V0.000762939H0.000732422V48.0001H48V46.4001H44.8001ZM5.60065 46.4001V38.4002H8.8006V46.4001H5.60065ZM14.4005 46.4001V33.6003H17.6005V46.4001H14.4005ZM22.4004 46.4001V27.2004H25.6004V46.4001H22.4004ZM31.2003 46.4001V20.8005H34.4002V46.4001H31.2003ZM40.0001 46.4001V12.8006H43.2001V46.4001H40.0001Z" fill="#022D45"/>
<path d="M7.20052 34.4003C8.52589 34.4003 9.60049 33.3257 9.60049 32.0004C9.59775 31.6066 9.49697 31.2195 9.30674 30.8746L14.2668 25.4114C15.1188 25.7852 16.1105 25.6274 16.8043 25.0075C17.4984 24.388 17.7668 23.4204 17.4914 22.5317L22.6425 18.7814C23.521 19.3818 24.6897 19.3326 25.5143 18.6603C26.3389 17.9877 26.6221 16.8529 26.2104 15.8717L31.6728 10.9116C32.0189 11.1003 32.406 11.1995 32.8002 11.2007C34.1255 11.2007 35.2001 10.1261 35.2001 8.80069C35.197 8.57061 35.1599 8.3421 35.0904 8.12296L40.2399 4.37731C41.1497 5.00309 42.3684 4.92731 43.1938 4.19411C44.0191 3.46092 44.2379 2.25938 43.7238 1.28244C43.2098 0.305496 42.0957 -0.194887 41.0243 0.0699529C39.9524 0.335184 39.1997 1.29689 39.2001 2.40078C39.2032 2.63085 39.2399 2.85898 39.3094 3.07811L34.1599 6.82376C33.2822 6.22299 32.1134 6.27221 31.2889 6.94407C30.4643 7.61594 30.1803 8.75069 30.5912 9.73193L25.1292 14.6916C24.7831 14.5018 24.3948 14.4018 24.0003 14.4006C22.6749 14.4006 21.6003 15.4748 21.6003 16.8006C21.6034 17.0307 21.6402 17.2588 21.7097 17.4779L16.5602 21.2275C15.6527 20.5876 14.4235 20.6583 13.5954 21.3986C12.7668 22.1388 12.559 23.3524 13.093 24.3259L8.13332 29.7891C7.23724 29.4109 6.20132 29.6109 5.5107 30.2957C4.81969 30.9805 4.61071 32.0144 4.98102 32.914C5.35133 33.8132 6.22788 34.4003 7.20052 34.4003ZM41.6 1.60079C42.0418 1.60079 42.4 1.95899 42.4 2.40078C42.4 2.84257 42.0418 3.20077 41.6 3.20077C41.1582 3.20077 40.8 2.84257 40.8 2.40078C40.8 1.95899 41.1582 1.60079 41.6 1.60079ZM32.8002 8.0007C33.2419 8.0007 33.6001 8.3589 33.6001 8.80069C33.6001 9.24248 33.2419 9.60068 32.8002 9.60068C32.3584 9.60068 32.0002 9.24248 32.0002 8.80069C32.0002 8.3589 32.3584 8.0007 32.8002 8.0007ZM24.0003 16.0006C24.4421 16.0006 24.8003 16.3588 24.8003 16.8006C24.8003 17.2424 24.4421 17.6006 24.0003 17.6006C23.5585 17.6006 23.2003 17.2424 23.2003 16.8006C23.2003 16.3588 23.5585 16.0006 24.0003 16.0006ZM15.2004 22.4005C15.6422 22.4005 16.0004 22.7587 16.0004 23.2005C16.0004 23.6423 15.6422 24.0005 15.2004 24.0005C14.7586 24.0005 14.4004 23.6423 14.4004 23.2005C14.4004 22.7587 14.7586 22.4005 15.2004 22.4005ZM7.20052 31.2004C7.64231 31.2004 8.00051 31.5586 8.00051 32.0004C8.00051 32.4422 7.64231 32.8003 7.20052 32.8003C6.75873 32.8003 6.40053 32.4422 6.40053 32.0004C6.40053 31.5586 6.75873 31.2004 7.20052 31.2004Z" fill="#022D45"/>
</g>
<defs>
<clipPath id="clip0_913:1977">
<rect width="48" height="48" fill="white"/>
</clipPath>
</defs>
</svg>
