<svg width="48" height="48" viewBox="0 0 48 48" fill="none" xmlns="http://www.w3.org/2000/svg">
<g clip-path="url(#clip0)">
<path d="M24.0001 6.16057C24.3894 6.16057 24.7049 5.84514 24.7049 5.45584V0.704731C24.7049 0.315438 24.3894 0 24.0001 0C23.6109 0 23.2954 0.315438 23.2954 0.704731V5.45584C23.2954 5.84514 23.6109 6.16057 24.0001 6.16057Z" fill="#022D45"/>
<path d="M10.8517 11.194C11.127 11.4692 11.573 11.4692 11.8483 11.194C12.1236 10.9187 12.1236 10.4726 11.8483 10.1974L8.48874 6.83766C8.21352 6.56263 7.76738 6.56244 7.49206 6.83766C7.21684 7.11298 7.21684 7.55912 7.49206 7.83434L10.8517 11.194Z" fill="#022D45"/>
<path d="M6.11023 22.641H1.35903C0.969735 22.641 0.654297 22.9564 0.654297 23.3457C0.654297 23.735 0.969735 24.0504 1.35903 24.0504H6.11014C6.49943 24.0504 6.81487 23.735 6.81487 23.3457C6.81487 22.9564 6.49943 22.641 6.11023 22.641Z" fill="#022D45"/>
<path d="M10.8517 35.4973L7.49206 38.8569C7.21684 39.1322 7.21684 39.5784 7.49206 39.8536C7.76738 40.1287 8.21342 40.1287 8.48874 39.8536L11.8483 36.494C12.1236 36.2187 12.1236 35.7725 11.8483 35.4973C11.5731 35.2223 11.127 35.2223 10.8517 35.4973Z" fill="#022D45"/>
<path d="M37.1484 35.4973C36.8731 35.2222 36.4269 35.2222 36.1517 35.4973C35.8765 35.7726 35.8765 36.2187 36.1517 36.494L39.5113 39.8536C39.7866 40.1287 40.2327 40.1287 40.508 39.8536C40.7832 39.5783 40.7832 39.1321 40.508 38.8569L37.1484 35.4973Z" fill="#022D45"/>
<path d="M46.6409 22.641H41.8898C41.5005 22.641 41.1851 22.9564 41.1851 23.3457C41.1851 23.735 41.5005 24.0504 41.8898 24.0504H46.6409C47.0302 24.0504 47.3456 23.735 47.3456 23.3457C47.3456 22.9564 47.0301 22.641 46.6409 22.641Z" fill="#022D45"/>
<path d="M39.5113 6.83766L36.1517 10.1974C35.8765 10.4727 35.8765 10.9188 36.1517 11.194C36.427 11.4692 36.8731 11.4692 37.1484 11.194L40.508 7.83434C40.7832 7.55903 40.7832 7.11288 40.508 6.83766C40.2327 6.56254 39.7865 6.56254 39.5113 6.83766Z" fill="#022D45"/>
<path d="M37.922 21.9211C37.922 14.1341 31.6766 7.79895 24 7.79895C21.311 7.79895 18.701 8.57819 16.4525 10.0524C14.2648 11.4868 12.5208 13.5046 11.4091 15.8879C11.2446 16.2406 11.3972 16.66 11.7498 16.8245C12.1029 16.9892 12.5219 16.8364 12.6865 16.4838C14.748 12.0642 19.1888 9.20841 24 9.20841C30.8995 9.20841 36.5125 14.9113 36.5125 21.9211C36.5125 25.2506 35.2543 28.3984 32.9699 30.7844C31.6531 32.1596 30.5323 33.4736 30.244 35.3147H17.9404C17.577 33.4034 16.2733 32.0625 15.1017 30.8585C12.7711 28.4633 11.4876 25.2892 11.4876 21.9211C11.4876 21.0894 11.5672 20.2577 11.724 19.4487C11.7981 19.0667 11.5485 18.6968 11.1663 18.6227C10.7843 18.5491 10.4144 18.7983 10.3403 19.1804C10.1663 20.0775 10.0781 20.9996 10.0781 21.9211C10.0781 25.6585 11.5035 29.1817 14.0916 31.8414C15.578 33.3689 16.6302 34.5882 16.6302 36.3753C16.6302 36.3815 16.6303 36.3879 16.6305 36.3941L16.6709 40.5297C16.6709 41.8715 17.3867 43.0491 18.4563 43.7012V44.4762C18.4563 46.4192 20.0369 47.9999 21.9799 47.9999H26.3023C28.2453 47.9999 29.8259 46.4192 29.8259 44.4762V43.7012C30.8955 43.0491 31.6112 41.8715 31.6112 40.5297C31.6112 40.5297 31.6063 35.9231 31.5969 35.8771C31.7306 34.2438 32.7206 33.0829 33.988 31.7591C36.5247 29.1094 37.922 25.6155 37.922 21.9211ZM28.4164 44.4762C28.4164 45.642 27.4679 46.5904 26.3022 46.5904H21.9798C20.8141 46.5904 19.8656 45.642 19.8656 44.4762V44.2046C20.0347 44.2283 20.207 44.2413 20.3824 44.2413H27.8996C28.075 44.2413 28.2473 44.2282 28.4164 44.2046V44.4762ZM27.8996 42.8319H20.3824C19.113 42.8319 18.0803 41.7992 18.0803 40.5297V40.4828H25.2216C25.6109 40.4828 25.9263 40.1673 25.9263 39.778C25.9263 39.3887 25.6109 39.0733 25.2216 39.0733H18.0803V36.7242H30.1799L30.2017 39.0733H28.5103C28.121 39.0733 27.8056 39.3887 27.8056 39.778C27.8056 40.1673 28.121 40.4828 28.5103 40.4828H30.2017V40.5297C30.2017 41.7992 29.1689 42.8319 27.8996 42.8319Z" fill="#022D45"/>
<path d="M28.5816 22.0144C28.3429 22.3218 28.3986 22.7645 28.706 23.0032C29.0133 23.242 29.456 23.1864 29.6948 22.8788L31.09 21.0821C31.4594 20.6064 31.6214 20.0152 31.5462 19.4175C31.471 18.8198 31.1676 18.2872 30.6917 17.9178C30.216 17.5483 29.6245 17.3854 29.0272 17.4616C28.4295 17.5368 27.8969 17.8402 27.5275 18.316L22.976 24.1779L20.3637 21.2876C19.5298 20.3653 18.1009 20.2933 17.1786 21.1268C16.7317 21.5308 16.4689 22.0845 16.4385 22.6862C16.4081 23.2877 16.6138 23.8651 17.0177 24.3121L21.4341 29.1983C22.3231 30.2294 24.0798 30.1662 24.8883 29.0692L27.6776 25.4769C27.9163 25.1696 27.8606 24.7268 27.5532 24.4881C27.2459 24.2495 26.8032 24.305 26.5644 24.6125L23.7751 28.2048C23.4724 28.6162 22.8117 28.6401 22.4798 28.2532L18.0635 23.367C17.7508 23.0211 17.7779 22.4853 18.1239 22.1726C18.4697 21.8602 19.0056 21.8869 19.3183 22.233L22.4943 25.7469C22.7711 26.0679 23.3214 26.0494 23.5738 25.7065L28.641 19.1806C28.9122 18.8158 29.4747 18.745 29.8275 19.0313C30.1924 19.3026 30.2631 19.8646 29.9769 20.2179L28.5816 22.0144Z" fill="#022D45"/>
</g>
<defs>
<clipPath id="clip0">
<rect width="48" height="48" fill="white"/>
</clipPath>
</defs>
</svg>
