<svg width="48" height="47" viewBox="0 0 48 47" fill="none" xmlns="http://www.w3.org/2000/svg">
<path d="M4.63804 21.6967H17.5029C20.0385 21.6967 22.1014 19.6768 22.1014 17.1941V4.5972C22.1014 2.11437 20.0385 0.0945129 17.5029 0.0945129H4.63804C2.10247 0.0945129 0.0395508 2.11437 0.0395508 4.5972V17.1941C0.0395508 19.6768 2.10247 21.6967 4.63804 21.6967ZM3.42791 4.5972C3.42791 3.94279 3.9697 3.41229 4.63804 3.41229H17.5029C18.1712 3.41229 18.713 3.94279 18.713 4.5972V17.1941C18.713 17.8485 18.1712 18.379 17.5029 18.379H4.63804C3.9697 18.379 3.42791 17.8485 3.42791 17.1941V4.5972Z" fill="#022D45"/>
<path d="M17.5029 21.7355H4.63804C2.08063 21.7355 0 19.6982 0 17.194V4.5972C0 2.09299 2.08063 0.0557861 4.63804 0.0557861H17.5029C20.0603 0.0557861 22.1409 2.09307 22.1409 4.5972V17.194C22.1409 19.6982 20.0603 21.7355 17.5029 21.7355ZM4.63804 0.133232C2.12421 0.133232 0.0790934 2.13574 0.0790934 4.5972V17.194C0.0790934 19.6555 2.12421 21.658 4.63804 21.658H17.5029C20.0167 21.658 22.0619 19.6555 22.0619 17.194V4.5972C22.0619 2.13574 20.0167 0.133232 17.5029 0.133232H4.63804ZM17.5029 18.4176H4.63804C3.94898 18.4176 3.38836 17.8687 3.38836 17.194V4.5972C3.38836 3.92249 3.94898 3.37356 4.63804 3.37356H17.5029C18.192 3.37356 18.7526 3.92249 18.7526 4.5972V17.194C18.7526 17.8688 18.192 18.4176 17.5029 18.4176ZM4.63804 3.451C3.99256 3.451 3.46746 3.96517 3.46746 4.5972V17.194C3.46746 17.8261 3.99256 18.3402 4.63804 18.3402H17.5029C18.1484 18.3402 18.6735 17.8261 18.6735 17.194V4.5972C18.6735 3.96517 18.1484 3.451 17.5029 3.451H4.63804Z" fill="#022D45"/>
<path d="M43.3621 0.0945129H30.4973C27.9616 0.0945129 25.8987 2.11445 25.8987 4.5972V17.1941C25.8987 19.6768 27.9616 21.6967 30.4973 21.6967H43.3621C45.8978 21.6967 47.9605 19.6768 47.9605 17.1941V4.5972C47.9605 2.11437 45.8978 0.0945129 43.3621 0.0945129ZM44.5722 17.1941C44.5722 17.8485 44.0304 18.379 43.3621 18.379H30.4973C29.829 18.379 29.287 17.8485 29.287 17.1941V4.5972C29.287 3.94279 29.829 3.41229 30.4973 3.41229H43.3621C44.0304 3.41229 44.5722 3.94279 44.5722 4.5972V17.1941Z" fill="#022D45"/>
<path d="M43.3621 21.7355H30.4973C27.9398 21.7355 25.8591 19.6982 25.8591 17.194V4.5972C25.8591 2.09307 27.9398 0.0557861 30.4973 0.0557861H43.3621C45.9194 0.0557861 48.0001 2.09307 48.0001 4.5972V17.194C48.0001 19.6982 45.9194 21.7355 43.3621 21.7355ZM30.4973 0.133232C27.9834 0.133232 25.9382 2.13574 25.9382 4.5972V17.194C25.9382 19.6555 27.9833 21.658 30.4973 21.658H43.3621C45.8759 21.658 47.921 19.6555 47.921 17.194V4.5972C47.921 2.13574 45.8759 0.133232 43.3621 0.133232H30.4973ZM43.3621 18.4176H30.4973C29.8081 18.4176 29.2475 17.8687 29.2475 17.194V4.5972C29.2475 3.92249 29.8081 3.37356 30.4973 3.37356H43.3621C44.0512 3.37356 44.6117 3.92249 44.6117 4.5972V17.194C44.6117 17.8688 44.0512 18.4176 43.3621 18.4176ZM30.4973 3.451C29.8518 3.451 29.3266 3.96517 29.3266 4.5972V17.194C29.3266 17.8261 29.8518 18.3402 30.4973 18.3402H43.3621C44.0075 18.3402 44.5326 17.8261 44.5326 17.194V4.5972C44.5326 3.96517 44.0075 3.451 43.3621 3.451H30.4973Z" fill="#022D45"/>
<path d="M4.63804 46.9056H17.5029C20.0385 46.9056 22.1014 44.8859 22.1014 42.403V29.8062C22.1014 27.3233 20.0385 25.3034 17.5029 25.3034H4.63804C2.10247 25.3034 0.0395508 27.3233 0.0395508 29.8062V42.403C0.0395508 44.8859 2.10247 46.9056 4.63804 46.9056ZM3.42791 29.8062C3.42791 29.1518 3.9697 28.6212 4.63804 28.6212H17.5029C18.1712 28.6212 18.713 29.1518 18.713 29.8062V42.403C18.713 43.0574 18.1712 43.5879 17.5029 43.5879H4.63804C3.9697 43.5879 3.42791 43.0574 3.42791 42.403V29.8062Z" fill="#022D45"/>
<path d="M17.5029 46.9444H4.63804C2.08063 46.9444 0 44.9071 0 42.4031V29.8061C0 27.3019 2.08063 25.2646 4.63804 25.2646H17.5029C20.0603 25.2646 22.1409 27.3019 22.1409 29.8061V42.403C22.1409 44.9071 20.0603 46.9444 17.5029 46.9444ZM4.63804 25.3422C2.12421 25.3422 0.0790934 27.3447 0.0790934 29.8061V42.403C0.0790934 44.8644 2.12421 46.8669 4.63804 46.8669H17.5029C20.0167 46.8669 22.0619 44.8645 22.0619 42.403V29.8061C22.0619 27.3447 20.0167 25.3421 17.5029 25.3421H4.63804V25.3422ZM17.5029 43.6266H4.63804C3.94898 43.6266 3.38836 43.0777 3.38836 42.403V29.8061C3.38836 29.1314 3.94898 28.5824 4.63804 28.5824H17.5029C18.192 28.5824 18.7526 29.1314 18.7526 29.8061V42.403C18.7526 43.0777 18.192 43.6266 17.5029 43.6266ZM4.63804 28.6599C3.99256 28.6599 3.46746 29.1741 3.46746 29.8061V42.403C3.46746 43.035 3.99256 43.5491 4.63804 43.5491H17.5029C18.1484 43.5491 18.6735 43.035 18.6735 42.403V29.8061C18.6735 29.1741 18.1484 28.6599 17.5029 28.6599H4.63804Z" fill="#022D45"/>
<path d="M43.3621 25.3035H30.4973C27.9616 25.3035 25.8987 27.3234 25.8987 29.8062V42.4031C25.8987 44.8859 27.9616 46.9057 30.4973 46.9057H43.3621C45.8978 46.9057 47.9605 44.8859 47.9605 42.4031V29.8062C47.9605 27.3234 45.8978 25.3035 43.3621 25.3035ZM44.5722 42.4031C44.5722 43.0574 44.0304 43.5879 43.3621 43.5879H30.4973C29.829 43.5879 29.287 43.0574 29.287 42.4031V29.8062C29.287 29.1518 29.829 28.6212 30.4973 28.6212H43.3621C44.0304 28.6212 44.5722 29.1518 44.5722 29.8062V42.4031Z" fill="#022D45"/>
<path d="M43.3621 46.9444H30.4973C27.9398 46.9444 25.8591 44.9071 25.8591 42.403V29.8061C25.8591 27.3019 27.9398 25.2646 30.4973 25.2646H43.3621C45.9194 25.2646 48.0001 27.3019 48.0001 29.8061V42.403C48.0001 44.9071 45.9194 46.9444 43.3621 46.9444ZM30.4973 25.3422C27.9834 25.3422 25.9382 27.3447 25.9382 29.8062V42.4031C25.9382 44.8645 27.9833 46.867 30.4973 46.867H43.3621C45.8759 46.867 47.921 44.8646 47.921 42.4031V29.8061C47.921 27.3447 45.8759 25.3421 43.3621 25.3421H30.4973V25.3422ZM43.3621 43.6266H30.4973C29.8081 43.6266 29.2475 43.0777 29.2475 42.403V29.8061C29.2475 29.1314 29.8081 28.5824 30.4973 28.5824H43.3621C44.0512 28.5824 44.6117 29.1314 44.6117 29.8061V42.403C44.6117 43.0777 44.0512 43.6266 43.3621 43.6266ZM30.4973 28.6599C29.8518 28.6599 29.3266 29.1741 29.3266 29.8061V42.403C29.3266 43.035 29.8518 43.5491 30.4973 43.5491H43.3621C44.0075 43.5491 44.5326 43.035 44.5326 42.403V29.8061C44.5326 29.1741 44.0075 28.6599 43.3621 28.6599H30.4973Z" fill="#022D45"/>
</svg>
