<svg width="48" height="48" viewBox="0 0 48 48" fill="none" xmlns="http://www.w3.org/2000/svg">
<path d="M37.5 31.5C34.1918 31.5 31.5 34.1918 31.5 37.5C31.5 40.8082 34.1918 43.5 37.5 43.5C40.8082 43.5 43.5 40.8082 43.5 37.5C43.5 34.1918 40.8082 31.5 37.5 31.5ZM37.5 42C35.0182 42 33 39.9818 33 37.5C33 35.0182 35.0182 33 37.5 33C39.9818 33 42 35.0182 42 37.5C42 39.9818 39.9818 42 37.5 42Z" fill="#022D45"/>
<path d="M37.5 34.5C35.8455 34.5 34.5 35.8455 34.5 37.5C34.5 39.1545 35.8455 40.5 37.5 40.5C39.1545 40.5 40.5 39.1545 40.5 37.5C40.5 35.8455 39.1545 34.5 37.5 34.5ZM37.5 39C36.6727 39 36 38.3273 36 37.5C36 36.6727 36.6727 36 37.5 36C38.3273 36 39 36.6727 39 37.5C39 38.3273 38.3273 39 37.5 39Z" fill="#022D45"/>
<path d="M47.25 40.281V34.7197L45.8805 34.236C45.834 34.1182 45.7852 34.0005 45.7335 33.8827L46.3605 32.5718L42.4275 28.6388L41.1165 29.2657C40.9995 29.214 40.8818 29.1645 40.7633 29.1188L40.281 27.75H34.7197L34.236 29.1195C34.1182 29.166 34.0005 29.2147 33.8827 29.2665L32.5718 28.6395L28.6388 32.5725L29.2657 33.8835C29.214 34.0005 29.1645 34.1182 29.1188 34.2367L27.75 34.719V40.2803L29.1195 40.764C29.166 40.8818 29.2147 40.9995 29.2665 41.1173L28.6395 42.4282L32.5725 46.3612L33.8835 45.7342C34.0005 45.786 34.1182 45.8355 34.2367 45.8812L34.719 47.25H40.2803L40.764 45.8805C40.8818 45.834 40.9995 45.7852 41.1173 45.7335L42.4282 46.3605L46.3612 42.4275L45.7342 41.1165C45.786 40.9995 45.8355 40.8818 45.8812 40.7633L47.25 40.281ZM45.75 39.219L44.706 39.5873L44.5882 39.9308C44.49 40.218 44.3692 40.5075 44.2297 40.791L44.07 41.1173L44.5485 42.1178L42.117 44.5492L41.1165 44.0708L40.7903 44.2305C40.5068 44.37 40.2173 44.49 39.93 44.589L39.5865 44.7068L39.219 45.75H35.7803L35.412 44.706L35.0685 44.5882C34.7812 44.49 34.4918 44.3692 34.2083 44.2297L33.882 44.07L32.8815 44.5485L30.45 42.117L30.9285 41.1165L30.7688 40.7903C30.6293 40.5068 30.5093 40.2173 30.4103 39.93L30.2925 39.5865L29.25 39.219V35.7803L30.294 35.412L30.4117 35.0685C30.51 34.7812 30.6308 34.4918 30.7703 34.2083L30.93 33.882L30.4515 32.8815L32.883 30.45L33.8835 30.9285L34.2097 30.7688C34.4932 30.6293 34.7827 30.5093 35.07 30.4103L35.4135 30.2925L35.781 29.25H39.2197L39.588 30.294L39.9315 30.4117C40.2188 30.51 40.5083 30.6308 40.7917 30.7703L41.118 30.93L42.1185 30.4515L44.55 32.883L44.0715 33.8835L44.2312 34.2097C44.3707 34.4932 44.4907 34.7827 44.5897 35.07L44.7075 35.4135L45.75 35.781V39.219Z" fill="#022D45"/>
<path d="M24.0158 22.7955C26.4233 20.3872 27.75 17.1855 27.75 13.7797V13.5C27.75 6.4695 22.0305 0.75 15 0.75C7.9695 0.75 2.25 6.4695 2.25 13.5V13.7797C2.25 17.1855 3.57675 20.3872 5.98425 22.7955L8.37825 25.1895C9.11925 25.9312 9.57675 26.8785 9.70725 27.9015C8.85825 28.2232 8.25 29.0392 8.25 30C8.25 30.5783 8.47575 31.101 8.835 31.5C8.475 31.899 8.25 32.4217 8.25 33C8.25 33.9915 8.89875 34.8255 9.7905 35.1247C10.101 37.7257 12.3165 39.75 15 39.75C17.6835 39.75 19.899 37.7257 20.2095 35.1247C21.1012 34.8255 21.75 33.9915 21.75 33C21.75 32.4217 21.5243 31.899 21.165 31.5C21.525 31.101 21.75 30.5783 21.75 30C21.75 29.0392 21.1418 28.2232 20.2927 27.9015C20.4225 26.8785 20.88 25.9312 21.6217 25.1895L24.0158 22.7955ZM19.5 29.25C19.9132 29.25 20.25 29.5868 20.25 30C20.25 30.4132 19.9132 30.75 19.5 30.75H10.5C10.0868 30.75 9.75 30.4132 9.75 30C9.75 29.5868 10.0868 29.25 10.5 29.25H19.5ZM15 38.25C13.1895 38.25 11.6745 36.9593 11.3258 35.25H18.6742C18.3255 36.9593 16.8105 38.25 15 38.25ZM19.5 33.75H10.5C10.0868 33.75 9.75 33.4132 9.75 33C9.75 32.5868 10.0868 32.25 10.5 32.25H19.5C19.9132 32.25 20.25 32.5868 20.25 33C20.25 33.4132 19.9132 33.75 19.5 33.75ZM18.8002 27.75H11.1997C11.0355 26.3835 10.428 25.1175 9.4395 24.129L7.0455 21.735C4.92075 19.6095 3.75 16.7843 3.75 13.7797V13.5C3.75 7.29675 8.79675 2.25 15 2.25C21.2033 2.25 26.25 7.29675 26.25 13.5V13.7797C26.25 16.785 25.0793 19.6095 22.9545 21.735L20.5605 24.129C19.572 25.1175 18.9645 26.3835 18.8002 27.75Z" fill="#022D45"/>
<path d="M33.2864 18.75L37.4999 27.177L41.7134 18.75H38.2499V10.5C38.2499 9.2595 37.2404 8.25 35.9999 8.25H33.7499V9.75H35.9999C36.4131 9.75 36.7499 10.0868 36.7499 10.5V18.75H33.2864ZM37.4999 23.823L35.7134 20.25H39.2864L37.4999 23.823Z" fill="#022D45"/>
<path d="M30.75 8.25H32.25V9.75H30.75V8.25Z" fill="#022D45"/>
<path d="M9.46338 39.75L5.24988 31.323L1.03638 39.75H4.49988V43.5C4.49988 44.7405 5.50938 45.75 6.74988 45.75H8.99988V44.25H6.74988C6.33663 44.25 5.99988 43.9132 5.99988 43.5V39.75H9.46338ZM5.24988 34.677L7.03638 38.25H3.46338L5.24988 34.677Z" fill="#022D45"/>
<path d="M13.5 44.25H15V45.75H13.5V44.25Z" fill="#022D45"/>
<path d="M10.5 44.25H12V45.75H10.5V44.25Z" fill="#022D45"/>
<path d="M16.5 44.25H18V45.75H16.5V44.25Z" fill="#022D45"/>
<path d="M15 7.5C11.6918 7.5 9 10.1918 9 13.5C9 16.8082 11.6918 19.5 15 19.5C18.3082 19.5 21 16.8082 21 13.5C21 10.1918 18.3082 7.5 15 7.5ZM15 18C12.5182 18 10.5 15.9818 10.5 13.5C10.5 11.0182 12.5182 9 15 9C17.4818 9 19.5 11.0182 19.5 13.5C19.5 15.9818 17.4818 18 15 18Z" fill="#022D45"/>
<path d="M15 10.5C13.3455 10.5 12 11.8455 12 13.5C12 15.1545 13.3455 16.5 15 16.5C16.6545 16.5 18 15.1545 18 13.5C18 11.8455 16.6545 10.5 15 10.5ZM15 15C14.1727 15 13.5 14.3273 13.5 13.5C13.5 12.6727 14.1727 12 15 12C15.8273 12 16.5 12.6727 16.5 13.5C16.5 14.3273 15.8273 15 15 15Z" fill="#022D45"/>
<path d="M23.2335 17.1173C23.2852 17.0002 23.3347 16.8825 23.3805 16.764L24.75 16.281V10.7198L23.3805 10.236C23.334 10.1182 23.2852 10.0005 23.2335 9.88275L23.8605 8.57175L19.9275 4.6395L18.6165 5.2665C18.4995 5.21475 18.3818 5.16525 18.2633 5.1195L17.781 3.75H12.2197L11.736 5.1195C11.6182 5.166 11.5005 5.21475 11.3828 5.2665L10.0725 4.6395L6.1395 8.5725L6.7665 9.8835C6.71475 10.0005 6.66525 10.1182 6.6195 10.2368L5.25 10.719V16.2803L6.6195 16.764C6.666 16.8817 6.71475 16.9995 6.7665 17.1173L6.1395 18.4275L10.0725 22.3605L11.3835 21.7335C11.5005 21.7852 11.6182 21.8347 11.7368 21.8805L12.219 23.25H17.7803L18.264 21.8805C18.3817 21.834 18.4995 21.7852 18.6173 21.7335L19.9282 22.3605L23.8612 18.4275L23.2335 17.1173ZM22.089 15.9307C21.9907 16.218 21.87 16.5075 21.7305 16.791L21.5707 17.1173L22.0492 18.1178L19.6178 20.5492L18.6173 20.0707L18.291 20.2305C18.0075 20.37 17.718 20.49 17.4307 20.589L17.0873 20.7067L16.719 21.75H13.2803L12.912 20.706L12.5685 20.5882C12.2812 20.49 11.9918 20.3692 11.7083 20.2297L11.382 20.07L10.3815 20.5485L7.95 18.117L8.4285 17.1165L8.26875 16.7902C8.12925 16.5067 8.00925 16.2172 7.91025 15.93L7.7925 15.5865L6.75 15.219V11.7802L7.794 11.412L7.91175 11.0685C8.01 10.7813 8.13075 10.4918 8.27025 10.2083L8.43 9.882L7.9515 8.8815L10.383 6.45L11.3835 6.9285L11.7098 6.76875C11.9932 6.62925 12.2828 6.50925 12.57 6.41025L12.9135 6.2925L13.281 5.25H16.7197L17.088 6.294L17.4315 6.41175C17.7188 6.51 18.0083 6.63075 18.2917 6.77025L18.618 6.93L19.6185 6.4515L22.05 8.883L21.5715 9.8835L21.7313 10.2098C21.8708 10.4932 21.9907 10.7828 22.0897 11.07L22.2075 11.4135L23.25 11.781V15.2197L22.206 15.588L22.089 15.9307Z" fill="#022D45"/>
</svg>
