<svg width="24" height="24" viewBox="0 0 24 24" fill="none" xmlns="http://www.w3.org/2000/svg">
<path d="M20.2501 12.57V12V11.4225L21.6901 10.1625C21.9555 9.92854 22.1297 9.60827 22.1819 9.2583C22.234 8.90833 22.1608 8.55119 21.9751 8.25L20.2051 5.25C20.0735 5.0222 19.8844 4.83299 19.6567 4.70135C19.429 4.56971 19.1706 4.50027 18.9076 4.5C18.7446 4.49875 18.5824 4.52408 18.4276 4.575L16.6051 5.19C16.2904 4.98091 15.9622 4.79299 15.6226 4.6275L15.2401 2.7375C15.1715 2.3922 14.9836 2.08203 14.7094 1.86128C14.4352 1.64052 14.092 1.52325 13.7401 1.53H10.2301C9.87809 1.52325 9.53496 1.64052 9.26073 1.86128C8.9865 2.08203 8.79865 2.3922 8.73007 2.7375L8.34757 4.6275C8.00552 4.79295 7.67479 4.98086 7.35757 5.19L5.57257 4.545C5.41604 4.50422 5.25395 4.48902 5.09257 4.5C4.82952 4.50027 4.57118 4.56971 4.34344 4.70135C4.1157 4.83299 3.92659 5.0222 3.79507 5.25L2.02507 8.25C1.85001 8.55074 1.78496 8.90299 1.84105 9.24642C1.89715 9.58985 2.07091 9.9031 2.33257 10.1325L3.75007 11.43V12.5775L2.33257 13.8375C2.06352 14.0685 1.88501 14.3873 1.82872 14.7375C1.77242 15.0876 1.84199 15.4463 2.02507 15.75L3.79507 18.75C3.92659 18.9778 4.1157 19.167 4.34344 19.2987C4.57118 19.4303 4.82952 19.4997 5.09257 19.5C5.25558 19.5012 5.41771 19.4759 5.57257 19.425L7.39507 18.81C7.70972 19.0191 8.03795 19.207 8.37757 19.3725L8.76007 21.2625C8.82865 21.6078 9.0165 21.918 9.29073 22.1387C9.56495 22.3595 9.90809 22.4767 10.2601 22.47H13.8001C14.152 22.4767 14.4952 22.3595 14.7694 22.1387C15.0436 21.918 15.2315 21.6078 15.3001 21.2625L15.6826 19.3725C16.0246 19.2071 16.3553 19.0191 16.6726 18.81L18.4876 19.425C18.6424 19.4759 18.8046 19.5012 18.9676 19.5C19.2306 19.4997 19.489 19.4303 19.7167 19.2987C19.9444 19.167 20.1335 18.9778 20.2651 18.75L21.9751 15.75C22.1501 15.4493 22.2152 15.097 22.1591 14.7536C22.103 14.4101 21.9292 14.0969 21.6676 13.8675L20.2501 12.57ZM18.9076 18L16.3351 17.13C15.7329 17.6401 15.0446 18.0388 14.3026 18.3075L13.7701 21H10.2301L9.69757 18.3375C8.96138 18.0612 8.27686 17.6631 7.67257 17.16L5.09257 18L3.32257 15L5.36257 13.2C5.22389 12.4236 5.22389 11.6289 5.36257 10.8525L3.32257 9L5.09257 6L7.66507 6.87C8.26727 6.35992 8.95552 5.96119 9.69757 5.6925L10.2301 3H13.7701L14.3026 5.6625C15.0388 5.93882 15.7233 6.33686 16.3276 6.84L18.9076 6L20.6776 9L18.6376 10.8C18.7762 11.5764 18.7762 12.3711 18.6376 13.1475L20.6776 15L18.9076 18Z" fill="#022D45"/>
<path d="M12 16.5C11.11 16.5 10.24 16.2361 9.49994 15.7416C8.75991 15.2471 8.18314 14.5443 7.84254 13.7221C7.50195 12.8998 7.41283 11.995 7.58647 11.1221C7.7601 10.2492 8.18868 9.44736 8.81802 8.81802C9.44736 8.18868 10.2492 7.7601 11.1221 7.58647C11.995 7.41283 12.8998 7.50195 13.7221 7.84254C14.5443 8.18314 15.2471 8.75991 15.7416 9.49994C16.2361 10.24 16.5 11.11 16.5 12C16.506 12.5926 16.3937 13.1805 16.1697 13.7292C15.9457 14.2779 15.6145 14.7763 15.1954 15.1954C14.7763 15.6145 14.2779 15.9457 13.7292 16.1697C13.1805 16.3937 12.5926 16.506 12 16.5ZM12 9C11.6035 8.99077 11.2093 9.06205 10.8411 9.20954C10.473 9.35704 10.1386 9.57768 9.85812 9.85812C9.57768 10.1386 9.35704 10.473 9.20954 10.8411C9.06205 11.2093 8.99077 11.6035 9 12C8.99077 12.3965 9.06205 12.7907 9.20954 13.1589C9.35704 13.527 9.57768 13.8615 9.85812 14.1419C10.1386 14.4223 10.473 14.643 10.8411 14.7905C11.2093 14.938 11.6035 15.0092 12 15C12.3965 15.0092 12.7907 14.938 13.1589 14.7905C13.527 14.643 13.8615 14.4223 14.1419 14.1419C14.4223 13.8615 14.643 13.527 14.7905 13.1589C14.938 12.7907 15.0092 12.3965 15 12C15.0092 11.6035 14.938 11.2093 14.7905 10.8411C14.643 10.473 14.4223 10.1386 14.1419 9.85812C13.8615 9.57768 13.527 9.35704 13.1589 9.20954C12.7907 9.06205 12.3965 8.99077 12 9Z" fill="#022D45"/>
</svg>
