<svg width="21" height="22" viewBox="0 0 21 22" fill="none" xmlns="http://www.w3.org/2000/svg">
<path d="M4.49998 14C5.37507 13.995 6.21675 13.6634 6.85998 13.07L13.12 16.65C13.0402 16.9263 12.9998 17.2124 13 17.5C12.9936 18.3115 13.267 19.1005 13.7742 19.7341C14.2814 20.3676 14.9914 20.8071 15.7847 20.9784C16.5779 21.1497 17.406 21.0425 18.1295 20.6747C18.8529 20.307 19.4276 19.7011 19.7567 18.9593C20.0857 18.2174 20.1491 17.3848 19.9362 16.6017C19.7232 15.8186 19.2469 15.1327 18.5875 14.6597C17.9281 14.1866 17.1258 13.9552 16.3157 14.0045C15.5056 14.0537 14.7373 14.3806 14.14 14.93L7.87998 11.35C7.95553 11.1036 7.99593 10.8477 7.99998 10.59L14.15 7.07C14.744 7.60684 15.5046 7.92309 16.3042 7.9657C17.1037 8.00832 17.8936 7.77471 18.5414 7.30405C19.1891 6.8334 19.6554 6.15433 19.8619 5.38072C20.0684 4.60712 20.0026 3.78604 19.6755 3.05518C19.3485 2.32433 18.7801 1.72815 18.0657 1.36663C17.3512 1.00512 16.5342 0.900254 15.7517 1.06963C14.9691 1.239 14.2686 1.67232 13.7676 2.29689C13.2665 2.92147 12.9955 3.69933 13 4.5C13.0034 4.78731 13.0437 5.07299 13.12 5.35L7.42998 8.6C7.10029 8.08996 6.64355 7.67448 6.10466 7.39441C5.56578 7.11434 4.96328 6.97931 4.35641 7.00259C3.74953 7.02588 3.15916 7.20668 2.64331 7.52722C2.12747 7.84776 1.70391 8.29702 1.41427 8.83082C1.12463 9.36463 0.978879 9.96462 0.991337 10.5718C1.0038 11.179 1.17404 11.7725 1.48533 12.294C1.79662 12.8155 2.23825 13.247 2.76681 13.5461C3.29537 13.8452 3.89266 14.0016 4.49998 14ZM16.5 16C16.7967 16 17.0867 16.088 17.3333 16.2528C17.58 16.4176 17.7723 16.6519 17.8858 16.926C17.9993 17.2001 18.029 17.5017 17.9712 17.7926C17.9133 18.0836 17.7704 18.3509 17.5606 18.5607C17.3509 18.7704 17.0836 18.9133 16.7926 18.9712C16.5016 19.0291 16.2 18.9994 15.926 18.8858C15.6519 18.7723 15.4176 18.58 15.2528 18.3334C15.088 18.0867 15 17.7967 15 17.5C15 17.1022 15.158 16.7206 15.4393 16.4393C15.7206 16.158 16.1022 16 16.5 16ZM16.5 3C16.7967 3 17.0867 3.08798 17.3333 3.2528C17.58 3.41762 17.7723 3.65189 17.8858 3.92598C17.9993 4.20007 18.029 4.50167 17.9712 4.79264C17.9133 5.08361 17.7704 5.35089 17.5606 5.56066C17.3509 5.77044 17.0836 5.9133 16.7926 5.97118C16.5016 6.02906 16.2 5.99936 15.926 5.88582C15.6519 5.77229 15.4176 5.58003 15.2528 5.33336C15.088 5.08669 15 4.79668 15 4.5C15 4.10218 15.158 3.72065 15.4393 3.43934C15.7206 3.15804 16.1022 3 16.5 3ZM4.49998 9C4.79665 9 5.08666 9.08798 5.33334 9.2528C5.58001 9.41762 5.77227 9.65189 5.8858 9.92598C5.99933 10.2001 6.02904 10.5017 5.97116 10.7926C5.91328 11.0836 5.77042 11.3509 5.56064 11.5607C5.35086 11.7704 5.08359 11.9133 4.79262 11.9712C4.50164 12.0291 4.20004 11.9994 3.92596 11.8858C3.65187 11.7723 3.4176 11.58 3.25278 11.3334C3.08795 11.0867 2.99998 10.7967 2.99998 10.5C2.99998 10.1022 3.15802 9.72065 3.43932 9.43934C3.72062 9.15804 4.10216 9 4.49998 9Z" fill="#022D45"/>
</svg>
