<svg width="48" height="48" viewBox="0 0 48 48" fill="none" xmlns="http://www.w3.org/2000/svg">
<g clip-path="url(#clip0)">
<path d="M37.0188 26.2255C37.4072 26.2255 37.7219 25.9108 37.7219 25.5224V5.3982C37.7219 4.5071 36.9969 3.78214 36.1058 3.78214H9.41343C8.52233 3.78214 7.79736 4.5071 7.79736 5.3982V32.2208C7.79736 33.1119 8.52233 33.8368 9.41343 33.8368H36.1058C36.9969 33.8368 37.7219 33.1119 37.7219 32.2208V28.8284C37.7219 28.44 37.4072 28.1253 37.0188 28.1253C36.6304 28.1253 36.3156 28.44 36.3156 28.8284V32.2208C36.3156 32.3364 36.2215 32.4305 36.1058 32.4305H9.41343C9.29774 32.4305 9.20361 32.3364 9.20361 32.2208V5.3982C9.20361 5.28251 9.29774 5.18839 9.41343 5.18839H36.1058C36.2215 5.18839 36.3156 5.28251 36.3156 5.3982V25.5224C36.3156 25.9108 36.6305 26.2255 37.0188 26.2255Z" fill="#022D45"/>
<path d="M7.79736 37.2574C7.79736 38.3899 8.71865 39.3111 9.85115 39.3111H15.9123C17.0448 39.3111 17.9661 38.3899 17.9661 37.2574V37.2342C17.9661 36.1018 17.0448 35.1805 15.9123 35.1805H9.85115C8.71865 35.1805 7.79736 36.1018 7.79736 37.2342V37.2574ZM9.20361 37.2342C9.20361 36.8771 9.49415 36.5868 9.85115 36.5868H15.9123C16.2694 36.5868 16.5598 36.8772 16.5598 37.2342V37.2574C16.5598 37.6144 16.2693 37.9049 15.9123 37.9049H9.85115C9.49405 37.9049 9.20361 37.6144 9.20361 37.2574V37.2342Z" fill="#022D45"/>
<path d="M35.6681 35.1805H29.607C28.4745 35.1805 27.5532 36.1018 27.5532 37.2342V37.2574C27.5532 38.3899 28.4745 39.3111 29.607 39.3111H35.6681C36.8006 39.3111 37.7219 38.3899 37.7219 37.2574V37.2342C37.7219 36.1018 36.8006 35.1805 35.6681 35.1805ZM36.3157 37.2574C36.3157 37.6144 36.0251 37.9049 35.6681 37.9049H29.607C29.2499 37.9049 28.9595 37.6144 28.9595 37.2574V37.2342C28.9595 36.8771 29.25 36.5868 29.607 36.5868H35.6681C36.0252 36.5868 36.3157 36.8772 36.3157 37.2342V37.2574Z" fill="#022D45"/>
<path d="M22.7595 35.1805C22.371 35.1805 22.0563 35.4952 22.0563 35.8836V37.5519C20.2819 37.8831 18.9341 39.4424 18.9341 41.3115C18.9341 43.4208 20.6502 45.1369 22.7595 45.1369C24.8687 45.1369 26.5848 43.4208 26.5848 41.3115C26.5848 39.4424 25.2371 37.8831 23.4626 37.5519V35.8836C23.4626 35.4952 23.1478 35.1805 22.7595 35.1805ZM25.1785 41.3115C25.1785 42.6455 24.0933 43.7306 22.7594 43.7306C21.4254 43.7306 20.3402 42.6455 20.3402 41.3115C20.3402 39.9775 21.4254 38.8923 22.7594 38.8923C24.0933 38.8923 25.1785 39.9776 25.1785 41.3115Z" fill="#022D45"/>
<path d="M42.6552 13.7895C43.3882 13.7895 43.9845 13.1932 43.9845 12.4602V6.72609C43.9845 5.99316 43.3883 5.39672 42.6552 5.39672H41.504V3.44166C41.504 1.54397 39.96 0 38.0623 0H7.45679C5.55911 0 4.01514 1.54397 4.01514 3.44166V7.73241C4.01514 8.12081 4.32986 8.43553 4.71826 8.43553C5.10667 8.43553 5.42139 8.12081 5.42139 7.73241V3.44166C5.42139 2.31928 6.33442 1.40625 7.45679 1.40625H38.0623C39.1847 1.40625 40.0977 2.31928 40.0977 3.44166V39.3928C40.0977 40.5152 39.1847 41.4282 38.0623 41.4282H31.3972C31.2146 41.4282 31.0393 41.4992 30.9081 41.6261L26.704 45.6959C26.106 46.275 25.3182 46.5938 24.486 46.5938H21.0332C20.2009 46.5938 19.4132 46.275 18.8152 45.696L14.611 41.6262C14.4799 41.4993 14.3045 41.4283 14.122 41.4283H7.45679C6.33442 41.4283 5.42139 40.5153 5.42139 39.3929V11.0245C5.42139 10.6361 5.10667 10.3214 4.71826 10.3214C4.32986 10.3214 4.01514 10.6361 4.01514 11.0245V39.3928C4.01514 41.2905 5.55911 42.8345 7.45679 42.8345H13.8374L17.837 46.7063C18.6986 47.5405 19.8339 48 21.0332 48H24.486C25.6854 48 26.8205 47.5406 27.6822 46.7063L31.6818 42.8345H38.0623C39.96 42.8345 41.504 41.2905 41.504 39.3928V18.4909H43.2814C43.6698 18.4909 43.9845 18.1762 43.9845 17.7878C43.9845 17.3993 43.6698 17.0846 43.2814 17.0846H41.504V13.7895H42.6552ZM42.5783 6.80297V12.3832H41.504V6.80297H42.5783Z" fill="#022D45"/>
<path d="M28.4365 16.1811C28.7825 15.7748 28.9323 15.2399 28.8473 14.7136C28.5197 12.6826 27.4755 10.822 25.9072 9.47431C24.3217 8.11184 22.2958 7.36147 20.2026 7.36147C18.1095 7.36147 16.0836 8.11184 14.4981 9.47431C12.9297 10.822 11.8856 12.6826 11.558 14.7136C11.473 15.2399 11.6227 15.7748 11.9688 16.1811C12.3154 16.5882 12.8206 16.8215 13.355 16.8215H20.313C20.8016 16.8455 21.2275 16.2121 20.913 15.7504L18.7486 12.2253C18.5453 11.8944 18.1125 11.7912 17.7815 11.994C17.4506 12.1973 17.347 12.6302 17.5502 12.9612L19.0569 15.4152H13.355C13.1886 15.4152 13.0858 15.3237 13.0395 15.2693C12.9934 15.2152 12.9201 15.1001 12.9463 14.9374C13.2212 13.2338 14.0977 11.6723 15.4146 10.5407C16.7452 9.39734 18.4457 8.76762 20.2026 8.76762C21.9596 8.76762 23.6601 9.39734 24.9906 10.5407C26.3076 11.6723 27.1841 13.2339 27.459 14.9374C27.4852 15.1001 27.4119 15.2152 27.3658 15.2693C27.3195 15.3237 27.2167 15.4152 27.0503 15.4152H23.6056C23.2172 15.4152 22.9025 15.7299 22.9025 16.1183C22.9025 16.5067 23.2172 16.8214 23.6056 16.8214H27.0503C27.5847 16.8215 28.0899 16.5881 28.4365 16.1811Z" fill="#022D45"/>
<path d="M33.4079 8.67455H30.9106C30.5222 8.67455 30.2075 8.98926 30.2075 9.37767C30.2075 9.76608 30.5222 10.0808 30.9106 10.0808H33.4079C33.7963 10.0808 34.111 9.76608 34.111 9.37767C34.111 8.98926 33.7963 8.67455 33.4079 8.67455Z" fill="#022D45"/>
<path d="M34.111 12.0914C34.111 11.703 33.7963 11.3883 33.4079 11.3883H30.9106C30.5222 11.3883 30.2075 11.703 30.2075 12.0914C30.2075 12.4798 30.5222 12.7946 30.9106 12.7946H33.4079C33.7963 12.7946 34.111 12.4797 34.111 12.0914Z" fill="#022D45"/>
<path d="M19.1841 28.4535C19.1841 28.8431 19.4999 29.159 19.8896 29.159C20.2792 29.159 20.595 28.8431 20.595 28.4535C20.595 28.0639 20.2792 27.748 19.8896 27.748C19.4998 27.748 19.1841 28.0639 19.1841 28.4535Z" fill="#022D45"/>
<path d="M30.5049 29.5453C30.525 29.5453 30.5454 29.5452 30.5655 29.5447C32.1132 29.5136 33.3882 28.2792 33.4684 26.7344C33.5111 25.912 33.2229 25.1308 32.6568 24.5345C32.0988 23.9468 31.3144 23.6098 30.5047 23.6098C30.2528 23.6098 30.0362 23.6229 29.842 23.6478L30.1106 22.0266H32.2963C32.6848 22.0266 32.9995 21.7119 32.9995 21.3235C32.9995 20.9351 32.6848 20.6204 32.2963 20.6204H29.5143C29.1703 20.6204 28.8768 20.8692 28.8207 21.2085L28.2695 24.535C28.2262 24.7964 28.3347 25.0595 28.5485 25.2163C28.7623 25.3732 29.0472 25.3958 29.2835 25.2759C29.2893 25.2729 29.312 25.2618 29.348 25.2456C29.6561 25.1069 29.9031 25.016 30.5048 25.016C30.9369 25.016 31.3391 25.1889 31.6371 25.5028C31.935 25.8165 32.0866 26.228 32.0641 26.6615C32.022 27.4734 31.3513 28.1223 30.5373 28.1387C30.5266 28.1389 30.5159 28.139 30.5053 28.139C29.9947 28.139 29.5174 27.8909 29.2238 27.4709C29.0013 27.1529 28.563 27.075 28.2447 27.2976C27.9264 27.5202 27.8487 27.9585 28.0713 28.2767C28.6288 29.0744 29.5349 29.5454 30.5049 29.5453Z" fill="#022D45"/>
<path d="M24.2325 20.4185C22.6641 20.4185 21.3882 21.6944 21.3882 23.2629V26.6872C21.3882 28.2555 22.6641 29.5315 24.2325 29.5315C25.8008 29.5315 27.0768 28.2556 27.0768 26.6872V23.2629C27.0768 21.6944 25.8009 20.4185 24.2325 20.4185ZM25.6706 26.6872C25.6706 27.4801 25.0254 28.1253 24.2325 28.1253C23.4395 28.1253 22.7944 27.4801 22.7944 26.6872V23.2629C22.7944 22.4699 23.4395 21.8247 24.2325 21.8247C25.0254 21.8247 25.6706 22.4699 25.6706 23.2629V26.6872Z" fill="#022D45"/>
<path d="M12.6094 23.2629V26.6872C12.6094 28.2555 13.8853 29.5315 15.4537 29.5315C17.0222 29.5315 18.2981 28.2556 18.2981 26.6872V23.2629C18.2981 21.6945 17.0222 20.4185 15.4537 20.4185C13.8853 20.4185 12.6094 21.6944 12.6094 23.2629ZM16.8919 23.2629V26.6872C16.8919 27.4801 16.2467 28.1253 15.4537 28.1253C14.6608 28.1253 14.0156 27.4801 14.0156 26.6872V23.2629C14.0156 22.4699 14.6608 21.8247 15.4537 21.8247C16.2467 21.8247 16.8919 22.4699 16.8919 23.2629Z" fill="#022D45"/>
</g>
<defs>
<clipPath id="clip0">
<rect width="48" height="48" fill="white"/>
</clipPath>
</defs>
</svg>
