<svg width="43" height="38" viewBox="0 0 43 38" fill="none" xmlns="http://www.w3.org/2000/svg">
<path d="M32.232 2.36L21.672 26.312L11.16 2.36H3.96L18.696 35.192H24.696L39.384 2.36H32.232Z" fill="#022D45"/>
<path d="M32.232 2.36V0.36H30.928L30.402 1.55317L32.232 2.36ZM21.672 26.312L19.8406 27.1158L21.6678 31.2791L23.502 27.1188L21.672 26.312ZM11.16 2.36L12.9914 1.55624L12.4664 0.36H11.16V2.36ZM3.96 2.36V0.36H0.870127L2.13536 3.17895L3.96 2.36ZM18.696 35.192L16.8714 36.011L17.4014 37.192H18.696V35.192ZM24.696 35.192V37.192H25.9923L26.5216 36.0087L24.696 35.192ZM39.384 2.36L41.2096 3.17673L42.4698 0.36H39.384V2.36ZM30.402 1.55317L19.842 25.5052L23.502 27.1188L34.062 3.16683L30.402 1.55317ZM23.5034 25.5082L12.9914 1.55624L9.32861 3.16375L19.8406 27.1158L23.5034 25.5082ZM11.16 0.36H3.96V4.36H11.16V0.36ZM2.13536 3.17895L16.8714 36.011L20.5206 34.373L5.78464 1.54105L2.13536 3.17895ZM18.696 37.192H24.696V33.192H18.696V37.192ZM26.5216 36.0087L41.2096 3.17673L37.5584 1.54327L22.8704 34.3753L26.5216 36.0087ZM39.384 0.36H32.232V4.36H39.384V0.36Z" fill="#537689"/>
</svg>
