<svg width="33" height="31" viewBox="0 0 33 31" fill="none" xmlns="http://www.w3.org/2000/svg">
<path d="M27.7782 3.09091L17.6327 26H15.2436L5.09818 3.09091H7.71636L16.4873 22.9891L25.3236 3.09091H27.7782Z" fill="black"/>
<path d="M27.7782 3.09091L30.4381 4.26888L32.2481 0.181817H27.7782V3.09091ZM17.6327 26V28.9091H19.526L20.2927 27.178L17.6327 26ZM15.2436 26L12.5837 27.178L13.3504 28.9091H15.2436V26ZM5.09818 3.09091V0.181817H0.628274L2.43826 4.26888L5.09818 3.09091ZM7.71636 3.09091L10.3783 1.91754L9.61323 0.181817H7.71636V3.09091ZM16.4873 22.9891L13.8253 24.1625L16.4774 30.1791L19.146 24.1698L16.4873 22.9891ZM25.3236 3.09091V0.181817H23.4325L22.6649 1.91023L25.3236 3.09091ZM25.1183 1.91294L14.9728 24.822L20.2927 27.178L30.4381 4.26888L25.1183 1.91294ZM17.6327 23.0909H15.2436V28.9091H17.6327V23.0909ZM17.9036 24.822L7.75811 1.91294L2.43826 4.26888L12.5837 27.178L17.9036 24.822ZM5.09818 6H7.71636V0.181817H5.09818V6ZM5.0544 4.26427L13.8253 24.1625L19.1492 21.8157L10.3783 1.91754L5.0544 4.26427ZM19.146 24.1698L27.9824 4.27159L22.6649 1.91023L13.8286 21.8084L19.146 24.1698ZM25.3236 6H27.7782V0.181817H25.3236V6Z" fill="black"/>
</svg>
