<svg xmlns="http://www.w3.org/2000/svg" xmlns:xlink="http://www.w3.org/1999/xlink" id="Layer_1" x="0px" y="0px" viewBox="0 0 399 319" style="enable-background:new 0 0 399 319;" xml:space="preserve">
<style type="text/css">
	.st0{clip-path:url(#SVGID_2_);fill:url(#SVGID_3_);}
</style>
<g>
	<defs>
		<path id="SVGID_1_" d="M280.7,210.7h-1H154.5l-5.4,0l-7.8,0h-2.4h-0.8c-0.8,0-1.4,0.1-1.8,0.2c-6.5,1.2-11.5,6.9-11.5,13.8    c0,7.7,6.3,14,14,14c0.2,0,0.5,0,0.7,0h6.6c10.9,0,20.8,10.7,25.5,20.6l9.5,19.8c7.4,17.9,25.1,30.4,45.6,30.4    c20.8,0,38.5-12.8,45.8-30.9c0.1-0.3,0.3-0.5,0.4-0.8c2.7-4.8,21-48.5,21-48.5s2.4-5.9-1.3-12c-1.8-3-6.2-6.7-11.5-6.7    C281.1,210.7,280.9,210.7,280.7,210.7 M29.2,110.1c-8.1,0-14.6,6.5-14.6,14.6c0,8.1,6.5,14.6,14.6,14.6h18.3v0    c8,0,14.5-6.6,14.5-14.6s-6.5-14.6-14.5-14.6v0H29.2z M320.1,110.1h-78.3c-0.5,0-0.9,0.3-1.2,0.7l-13,29.9c-0.5,1-1.9,1-2.4,0    l-2.9-5.2c-0.4-0.8-0.9-1.7-1.4-2.5l0,0c0,0,0,0,0,0c-2.7-4.6-6.2-8.5-10.1-11.7c-7.8-6.5-17.7-10.6-28.6-11    c-0.6,0-1.3-0.1-1.9-0.1h-40.6h-32H91v0c-7.6,0.2-13.7,6.4-13.7,14c0,6.9,5,12.6,11.5,13.8c0.3,0.2,1,0.3,2.2,0.3v0h13.1    c11.6,0,19.2,10.4,24.2,20.9l1,2l6.6,13.6c0.4,0.9,1.2,2.4,1.9,3.8c0.7,1.4,1.4,2.7,2.3,4c0.5,0.9,1.1,1.7,1.7,2.5    c7,9.1,19.6,10.9,31.8,10.9h34.2h99.4h1.2c8.6-19.5,17.9-41.3,27.1-62.5c1.5-3.5,2.8-6.5,2.7-9.1c-0.2-10.7-8.8-14.4-14-14.4    H320.1z M28.1,9.4L28.1,9.4c-7.5,0.4-13.4,6.5-13.4,14c0,6.9,5,12.6,11.5,13.8c0.1,0.2,0.7,0.3,1.9,0.3v0h30.2    c11.6,0,22,10.5,27,21l0.8,1.9c1.7,3.8,3.6,8.4,5.7,13.2c0.1,0.2,0.1,0.3,0.2,0.5c7.7,17.8,19.6,21.3,38.9,21.3h34.9h40l-24-54.5    l-1.5-3.5c-0.9-2.2-2-4.1-3.2-6c-4.3-6.7-10.3-12.3-17.3-16.2c-0.2-0.1-0.4-0.2-0.6-0.3c-0.2-0.1-0.4-0.2-0.6-0.3    c-3.9-2-7.7-3.2-10.8-4c-4.7-1.2-8-1.3-8-1.3H28.1z M263.4,9.4C263.4,9.5,263.4,9.5,263.4,9.4c7.6,0.3,13.6,6.4,13.6,14    c0,2.1-0.5,4.1-1.3,5.9c-0.1,0.1-0.1,0.4-0.3,0.6c-0.1,0.1-3.9,8.9-4,9l-24.3,56.5H352c10.9-25,20.9-48.3,29-67.1    c3.9-8.9-3.4-18.9-13.2-18.9H263.4z"></path>
	</defs>
	<clipPath id="SVGID_2_">
		<use xlink:href="#SVGID_1_" style="overflow:visible;"></use>
	</clipPath>
	
		<linearGradient id="SVGID_3_" gradientUnits="userSpaceOnUse" x1="-220.0172" y1="457.1014" x2="-218.9317" y2="457.1014" gradientTransform="matrix(338.4858 0 0 338.4858 74487.3125 -154562.8594)">
		<stop offset="0" style="stop-color:#A54189"></stop>
		<stop offset="0.5682" style="stop-color:#EE3A3E"></stop>
		<stop offset="1" style="stop-color:#F79431"></stop>
	</linearGradient>
	<rect x="14.6" y="9.4" class="st0" width="370.2" height="300.1"></rect>
</g>
</svg>